<?xml version="1.0" encoding="UTF-8" standalone="no"?>
<!-- Created with Inkscape (http://www.inkscape.org/) -->

<svg
   width="210mm"
   height="297mm"
   viewBox="0 0 210 297"
   version="1.1"
   id="svg1"
   sodipodi:docname="drawing-1.svg"
   inkscape:version="1.4.2 (f4327f4, 2025-05-13)"
   xmlns:inkscape="http://www.inkscape.org/namespaces/inkscape"
   xmlns:sodipodi="http://sodipodi.sourceforge.net/DTD/sodipodi-0.dtd"
   xmlns="http://www.w3.org/2000/svg"
   xmlns:svg="http://www.w3.org/2000/svg">
  <sodipodi:namedview
     id="namedview1"
     pagecolor="#ffffff"
     bordercolor="#000000"
     borderopacity="0.25"
     inkscape:showpageshadow="2"
     inkscape:pageopacity="0.0"
     inkscape:pagecheckerboard="0"
     inkscape:deskcolor="#d1d1d1"
     inkscape:document-units="mm"
     inkscape:zoom="0.63370775"
     inkscape:cx="403.1827"
     inkscape:cy="354.26425"
     inkscape:window-width="1366"
     inkscape:window-height="705"
     inkscape:window-x="-8"
     inkscape:window-y="-8"
     inkscape:window-maximized="1"
     inkscape:current-layer="g2" />
  <defs
     id="defs1" />
  <g
     inkscape:label="Layer 1"
     inkscape:groupmode="layer"
     id="g2">
    <path
       d="m 97.555318,130.12523 c -2.60543,-0.32161 -6.93692,-1.78341 -9.87553,-3.33281 l -2.35634,-1.2424 0.1466,-1.32609 c 0.0806,-0.72935 0.33214,-2.8739 0.55892,-4.76567 0.5761,-4.80581 1.23417,-14.00982 1.47408,-21.034375 0.0316,-0.92551 -0.005,-2.77813 -0.005,-2.77813 0,0 -4.58596,9.711555 -6.91085,14.552085 -2.40033,4.9976 -7.071,14.73612 -7.26673,14.96104 -0.19573,0.22493 -0.76741,1.45845 -1.16017,2.18282 -0.32206,0.59398 -0.8838,1.77385 -0.98096,1.77385 -0.47697,0 -4.31599,-6.31012 -4.31599,-6.47325 0,-0.16312 0.76569,-2.13433 1.1647,-3.19552 1.81281,-4.82138 3.15367,-8.07815 5.58464,-14.4083 3.49769,-8.790625 6.58938,-17.763385 10.63272,-26.326049 l 5.03852,-2.208358 c 4.52597,-1.98371 5.11755,-2.317456 5.81539,-3.280806 l 11.490722,-0.01483 c 0.74745,0.997628 1.33781,1.33401 5.80439,3.307291 l 4.97232,2.196707 0.84473,1.719791 c 0.4646,0.945886 1.49992,3.327139 2.30072,5.291659 1.51126,3.70746 13.00638,33.359515 13.74441,35.454175 0.23072,0.65484 0.77519,2.12079 1.20993,3.25766 0.45043,1.17792 0.68942,2.1597 0.55559,2.28246 -0.25867,0.23729 -5.15786,2.39738 -5.43736,2.39738 -0.34658,0 -3.57073,-6.43715 -9.93015,-19.82598 -3.56429,-7.5041 -6.54034,-13.703345 -6.61344,-13.776105 -0.37174,-0.37001 1.09106,20.382295 1.8047,25.602755 0.43168,3.1578 0.4831,4.12244 0.23564,4.4206 -0.45087,0.54328 -5.37441,2.91868 -7.41401,3.57696 -2.01432,0.65012 -6.23526,1.33556 -7.9375,1.28898 -0.65485,-0.0179 -2.083602,-0.14281 -3.175002,-0.27753 z m 7.307532,-0.61983 c 1.29236,-0.22214 2.94507,-0.59402 3.67268,-0.8264 1.52854,-0.48817 6.00629,-2.50889 5.86736,-2.64782 -0.0515,-0.0515 -1.45221,0.31996 -3.11276,0.8254 -7.6542,2.32975 -13.470942,2.33255 -20.878402,0.0101 -1.64341,-0.51526 -3.03086,-0.89401 -3.08321,-0.84166 -0.1629,0.1629 3.90825,1.97221 6.00387,2.66826 3.64334,1.21012 7.595682,1.48851 11.530462,0.81216 z m -32.227192,-4.20862 c -0.31578,-0.231 -5.30042,-2.29636 -5.36876,-2.22451 -0.0472,0.0496 -0.38708,0.83454 -0.75535,1.74434 -0.69739,1.73654 -1.07842,1.47647 0.56886,2.19247 0.68115,0.29606 1.7147,0.76243 2.29678,1.03638 0.58209,0.27396 1.20545,0.50774 1.38526,0.51952 0.44313,0.029 1.96975,-3.19758 1.87321,-3.2682 z m 60.641442,2.29743 c 1.30509,-0.54571 2.37408,-1.12514 2.37555,-1.28764 0.002,-0.2567 -1.02298,-2.97155 -1.22504,-3.24375 -0.0596,-0.0803 -5.06414,2.00108 -5.3288,2.21619 -0.15983,0.12991 1.34822,3.30738 1.56971,3.30738 0.12963,0 1.3035,-0.44648 2.60858,-0.99218 z M 99.671978,104.00883 V 79.960422 l -0.69257,-0.173824 c -0.46881,-0.117665 -0.84857,-0.03265 -1.17541,0.263139 -0.45189,0.408952 -0.5234,0.396404 -1.11555,-0.195738 -0.85797,-0.857973 -2.07854,-2.982716 -2.30215,-4.00753 -0.11423,-0.523525 -0.32351,-0.809184 -0.55746,-0.760904 -0.20601,0.04251 -2.30124,0.926328 -4.65606,1.964029 l -4.28149,1.886729 0.48066,0.946387 c 0.86419,1.701565 1.82941,5.196825 2.28102,8.260095 0.5575,3.78148 0.40609,12.819775 -0.37832,22.584215 -0.29225,3.63802 -0.56921,8.44982 -0.61546,10.69289 l -0.0841,4.0783 0.79375,0.099 c 0.43656,0.0544 1.68672,0.38181 2.77812,0.72751 3.91484,1.24002 5.84014,1.63577 8.26823,1.69954 l 1.25677,0.033 z m 2.116672,0.13255 V 80.225533 l -0.92604,-0.10811 -0.926042,-0.10811 v 24.023957 24.02396 h 0.926042 0.92604 z m -1.41111,17.65404 c -0.36422,-0.36421 -0.15713,-0.88194 0.35278,-0.88194 0.35277,0 0.52916,0.17638 0.52916,0.52916 0,0.50991 -0.51772,0.717 -0.88194,0.35278 z m -0.0441,-6.70278 c -0.22146,-0.35834 0.0774,-0.79375 0.54478,-0.79375 0.20969,0 0.38126,0.23813 0.38126,0.52917 0,0.54777 -0.63831,0.73014 -0.92604,0.26458 z m -0.0469,-6.50899 c -0.18718,-0.48779 0.4527,-0.99621 0.80739,-0.64152 0.28879,0.28879 0.0237,1.0651 -0.36365,1.0651 -0.15466,0 -0.35434,-0.19061 -0.44374,-0.42358 z m 0.091,-6.3674 c -0.36422,-0.36421 -0.15713,-0.88194 0.35278,-0.88194 0.35277,0 0.52916,0.17639 0.52916,0.52917 0,0.5099 -0.51772,0.71699 -0.88194,0.35277 z m -0.12661,-6.898175 c 0.13283,-0.6897 1.00855,-0.76662 1.00855,-0.0886 0,0.37865 -0.16992,0.54857 -0.54856,0.54857 -0.37865,0 -0.52113,-0.14248 -0.45999,-0.45998 z m 0.0357,-6.3136 c -0.18718,-0.48779 0.4527,-0.99621 0.80739,-0.64152 0.28879,0.28879 0.0237,1.0651 -0.36365,1.0651 -0.15466,0 -0.35434,-0.19061 -0.44374,-0.42358 z m 0.091,-6.36739 c -0.36422,-0.36422 -0.15713,-0.88195 0.35278,-0.88195 0.35277,0 0.52916,0.17639 0.52916,0.52917 0,0.5099 -0.51772,0.71699 -0.88194,0.35278 z m 6.47521,44.904645 c 1.36209,-0.28352 3.242,-0.76962 4.17757,-1.08022 0.93558,-0.3106 2.18573,-0.64771 2.77813,-0.74913 l 1.07708,-0.1844 0.0273,-3.82861 c 0.023,-3.22308 -0.38021,-10.27143 -1.06789,-18.66856 -0.26379,-3.221165 -0.19209,-12.576755 0.11339,-14.793375 0.36018,-2.61358 1.11774,-5.47881 2.00754,-7.59288 0.37155,-0.882755 0.57813,-1.689563 0.45907,-1.792907 -0.16992,-0.147486 -7.25744,-3.307351 -8.74929,-3.900742 -0.19305,-0.07678 -0.33082,0.073 -0.33094,0.35978 -2.6e-4,0.833646 -1.47592,3.62412 -2.35149,4.446954 -0.75017,0.704993 -0.87037,0.740903 -1.24065,0.37063 -0.23853,-0.238532 -0.67959,-0.358458 -1.05465,-0.28676 l -0.64467,0.123235 v 24.046245 24.04624 h 1.1615 c 0.63883,0 2.27594,-0.23198 3.63802,-0.5155 z m -20.674522,-3.49735 c 0,-1.64003 -0.13076,-1.59936 -0.35454,0.11024 -0.0991,0.75693 -0.0613,1.25677 0.095,1.25677 0.14274,0 0.25952,-0.61515 0.25952,-1.36701 z m 29.555882,-0.019 c -0.0633,-0.32912 -0.11747,-0.12215 -0.1204,0.45993 -0.003,0.58209 0.0488,0.85137 0.11506,0.5984 0.0662,-0.25296 0.0686,-0.72921 0.005,-1.05833 z M 87.820468,94.058225 c -0.16563,-3.22329 -1.14245,-13.124844 -3.25994,-14.684374 -0.89258,0 -17.31457,42.821389 -16.98922,43.146739 0.38025,0.38025 4.94923,2.34077 5.31946,2.28254 5.29572,-10.07791 10.04009,-20.45993 14.9297,-30.744905 z m 43.655882,29.745725 c 1.3526,-0.59303 2.55668,-1.17264 2.67574,-1.28803 0.11906,-0.11539 -0.0877,-0.93239 -0.45938,-1.81556 -0.37172,-0.88317 -3.04736,-7.77472 -5.94586,-15.31457 -7.75877,-20.182805 -10.13708,-26.011939 -10.61296,-26.011939 -0.33306,0 -1.52804,2.959694 -2.08311,5.159374 -0.62806,2.48897 -1.09121,5.96074 -1.09121,8.17983 0,1.50975 0.25193,2.10872 5.73413,13.632995 3.15377,6.62961 6.42482,13.51236 7.269,15.29499 0.84418,1.78263 1.65176,3.24115 1.79463,3.24115 0.14286,0 1.36643,-0.48521 2.71902,-1.07824 z m -32.681152,-45.681908 0.57833,-0.590358 -1.0407,-0.732558 c -1.01479,-0.714324 -2.10034,-2.435224 -2.10034,-3.329635 0,-0.245098 -0.11096,-0.445632 -0.24657,-0.445632 -0.41256,0 -1.3411,1.49686 -1.33834,2.157511 0.004,0.865075 1.12084,3.114505 2.00469,4.036212 l 0.73815,0.769764 0.41322,-0.637473 c 0.22728,-0.350609 0.67348,-0.903133 0.99156,-1.227831 z m 6.620712,0.656505 c 0.72631,-1.012732 1.6645,-3.227586 1.6645,-3.929504 0,-0.150145 -0.31467,-0.685547 -0.69928,-1.189782 l -0.69927,-0.916792 -0.45377,1.340411 c -0.48959,1.446208 -1.30811,2.481322 -2.41939,3.059595 l -0.69984,0.36417 0.89827,0.952446 c 0.49405,0.523845 0.89828,1.063031 0.89828,1.198191 0,0.600333 0.77172,0.151385 1.5105,-0.878735 z m -5.13801,0.330729 c -0.0761,-0.291042 -0.18402,-0.529167 -0.23981,-0.529167 -0.0558,0 -0.101432,0.238125 -0.101432,0.529167 0,0.291042 0.107912,0.529167 0.239812,0.529167 0.1319,0 0.17754,-0.238125 0.10143,-0.529167 z m 2.49895,0.313583 c 0.25294,-0.160661 0.23463,-0.338865 -0.0811,-0.789699 -0.30129,-0.430148 -0.66303,-0.576762 -1.38498,-0.561329 -0.53746,0.01149 -0.79859,0.08701 -0.58031,0.167818 0.82401,0.305063 1.08185,0.654771 0.76461,1.037023 -0.23967,0.288784 -0.1736,0.360953 0.32747,0.357719 0.34524,-0.0022 0.7747,-0.09742 0.95436,-0.211532 z m -3.040022,-0.710458 c 0.0802,-0.419372 0.006,-0.661458 -0.20331,-0.661458 -0.18136,0 -0.52479,0.297656 -0.76316,0.661458 -0.4209,0.642378 -0.41504,0.661458 0.20331,0.661458 0.46906,0 0.67001,-0.174176 0.76316,-0.661458 z m 2.845662,-1.861712 c 0.50932,-0.320756 1.14208,-0.824855 1.40613,-1.120219 0.47993,-0.536859 0.47895,-0.537027 -3.12209,-0.537027 -2.595582,0 -3.574552,0.08503 -3.503332,0.304271 0.0544,0.167349 0.80255,0.732323 1.66264,1.255498 1.691752,1.029055 2.061332,1.039184 3.556652,0.09748 z m 1.90003,-2.305475 c 0.22752,-0.181901 0.46953,-0.568855 0.5378,-0.859896 0.12025,-0.51263 -0.0109,-0.529167 -4.19619,-0.529167 -4.197712,0 -4.315752,0.01502 -4.159022,0.529167 0.34263,1.12396 0.56923,1.190625 4.047122,1.190625 2.28829,0 3.48828,-0.105264 3.77029,-0.330729 z m -0.31253,-1.746484 c 0.7058,-0.110205 -0.64094,-0.184135 -3.30729,-0.181556 -2.473862,0.0024 -4.021672,0.07798 -3.439582,0.167973 1.47736,0.228404 5.321492,0.236143 6.746872,0.01358 z"
       style="fill:#000000;stroke-width:0.264583"
       id="path2" />
  </g>
  <g
     inkscape:label="Layer 1"
     inkscape:groupmode="layer"
     id="layer1">
    <path
       d="m 97.555318,130.12523 c -2.60543,-0.32161 -6.93692,-1.78341 -9.87553,-3.33281 l -2.35634,-1.2424 0.1466,-1.32609 c 0.0806,-0.72935 0.33214,-2.8739 0.55892,-4.76567 0.5761,-4.80581 1.23417,-14.00982 1.47408,-21.034375 0.0316,-0.92551 -0.005,-2.77813 -0.005,-2.77813 0,0 -4.58596,9.711555 -6.91085,14.552085 -2.40033,4.9976 -7.071,14.73612 -7.26673,14.96104 -0.19573,0.22493 -0.76741,1.45845 -1.16017,2.18282 -0.32206,0.59398 -0.8838,1.77385 -0.98096,1.77385 -0.47697,0 -4.31599,-6.31012 -4.31599,-6.47325 0,-0.16312 0.76569,-2.13433 1.1647,-3.19552 1.81281,-4.82138 3.15367,-8.07815 5.58464,-14.4083 3.49769,-8.790625 6.58938,-17.763385 10.63272,-26.326049 l 5.03852,-2.208358 c 4.52597,-1.98371 5.11755,-2.317456 5.81539,-3.280806 l 11.490722,-0.01483 c 0.74745,0.997628 1.33781,1.33401 5.80439,3.307291 l 4.97232,2.196707 0.84473,1.719791 c 0.4646,0.945886 1.49992,3.327139 2.30072,5.291659 1.51126,3.70746 13.00638,33.359515 13.74441,35.454175 0.23072,0.65484 0.77519,2.12079 1.20993,3.25766 0.45043,1.17792 0.68942,2.1597 0.55559,2.28246 -0.25867,0.23729 -5.15786,2.39738 -5.43736,2.39738 -0.34658,0 -3.57073,-6.43715 -9.93015,-19.82598 -3.56429,-7.5041 -6.54034,-13.703345 -6.61344,-13.776105 -0.37174,-0.37001 1.09106,20.382295 1.8047,25.602755 0.43168,3.1578 0.4831,4.12244 0.23564,4.4206 -0.45087,0.54328 -5.37441,2.91868 -7.41401,3.57696 -2.01432,0.65012 -6.23526,1.33556 -7.9375,1.28898 -0.65485,-0.0179 -2.083602,-0.14281 -3.175002,-0.27753 z m 7.307532,-0.61983 c 1.29236,-0.22214 2.94507,-0.59402 3.67268,-0.8264 1.52854,-0.48817 6.00629,-2.50889 5.86736,-2.64782 -0.0515,-0.0515 -1.45221,0.31996 -3.11276,0.8254 -7.6542,2.32975 -13.470942,2.33255 -20.878402,0.0101 -1.64341,-0.51526 -3.03086,-0.89401 -3.08321,-0.84166 -0.1629,0.1629 3.90825,1.97221 6.00387,2.66826 3.64334,1.21012 7.595682,1.48851 11.530462,0.81216 z m -32.227192,-4.20862 c -0.31578,-0.231 -5.30042,-2.29636 -5.36876,-2.22451 -0.0472,0.0496 -0.38708,0.83454 -0.75535,1.74434 -0.69739,1.73654 -1.07842,1.47647 0.56886,2.19247 0.68115,0.29606 1.7147,0.76243 2.29678,1.03638 0.58209,0.27396 1.20545,0.50774 1.38526,0.51952 0.44313,0.029 1.96975,-3.19758 1.87321,-3.2682 z m 60.641442,2.29743 c 1.30509,-0.54571 2.37408,-1.12514 2.37555,-1.28764 0.002,-0.2567 -1.02298,-2.97155 -1.22504,-3.24375 -0.0596,-0.0803 -5.06414,2.00108 -5.3288,2.21619 -0.15983,0.12991 1.34822,3.30738 1.56971,3.30738 0.12963,0 1.3035,-0.44648 2.60858,-0.99218 z M 99.671978,104.00883 V 79.960422 l -0.69257,-0.173824 c -0.46881,-0.117665 -0.84857,-0.03265 -1.17541,0.263139 -0.45189,0.408952 -0.5234,0.396404 -1.11555,-0.195738 -0.85797,-0.857973 -2.07854,-2.982716 -2.30215,-4.00753 -0.11423,-0.523525 -0.32351,-0.809184 -0.55746,-0.760904 -0.20601,0.04251 -2.30124,0.926328 -4.65606,1.964029 l -4.28149,1.886729 0.48066,0.946387 c 0.86419,1.701565 1.82941,5.196825 2.28102,8.260095 0.5575,3.78148 0.40609,12.819775 -0.37832,22.584215 -0.29225,3.63802 -0.56921,8.44982 -0.61546,10.69289 l -0.0841,4.0783 0.79375,0.099 c 0.43656,0.0544 1.68672,0.38181 2.77812,0.72751 3.91484,1.24002 5.84014,1.63577 8.26823,1.69954 l 1.25677,0.033 z m 2.116672,0.13255 V 80.225533 l -0.92604,-0.10811 -0.926042,-0.10811 v 24.023957 24.02396 h 0.926042 0.92604 z m -1.41111,17.65404 c -0.36422,-0.36421 -0.15713,-0.88194 0.35278,-0.88194 0.35277,0 0.52916,0.17638 0.52916,0.52916 0,0.50991 -0.51772,0.717 -0.88194,0.35278 z m -0.0441,-6.70278 c -0.22146,-0.35834 0.0774,-0.79375 0.54478,-0.79375 0.20969,0 0.38126,0.23813 0.38126,0.52917 0,0.54777 -0.63831,0.73014 -0.92604,0.26458 z m -0.0469,-6.50899 c -0.18718,-0.48779 0.4527,-0.99621 0.80739,-0.64152 0.28879,0.28879 0.0237,1.0651 -0.36365,1.0651 -0.15466,0 -0.35434,-0.19061 -0.44374,-0.42358 z m 0.091,-6.3674 c -0.36422,-0.36421 -0.15713,-0.88194 0.35278,-0.88194 0.35277,0 0.52916,0.17639 0.52916,0.52917 0,0.5099 -0.51772,0.71699 -0.88194,0.35277 z m -0.12661,-6.898175 c 0.13283,-0.6897 1.00855,-0.76662 1.00855,-0.0886 0,0.37865 -0.16992,0.54857 -0.54856,0.54857 -0.37865,0 -0.52113,-0.14248 -0.45999,-0.45998 z m 0.0357,-6.3136 c -0.18718,-0.48779 0.4527,-0.99621 0.80739,-0.64152 0.28879,0.28879 0.0237,1.0651 -0.36365,1.0651 -0.15466,0 -0.35434,-0.19061 -0.44374,-0.42358 z m 0.091,-6.36739 c -0.36422,-0.36422 -0.15713,-0.88195 0.35278,-0.88195 0.35277,0 0.52916,0.17639 0.52916,0.52917 0,0.5099 -0.51772,0.71699 -0.88194,0.35278 z m 6.47521,44.904645 c 1.36209,-0.28352 3.242,-0.76962 4.17757,-1.08022 0.93558,-0.3106 2.18573,-0.64771 2.77813,-0.74913 l 1.07708,-0.1844 0.0273,-3.82861 c 0.023,-3.22308 -0.38021,-10.27143 -1.06789,-18.66856 -0.26379,-3.221165 -0.19209,-12.576755 0.11339,-14.793375 0.36018,-2.61358 1.11774,-5.47881 2.00754,-7.59288 0.37155,-0.882755 0.57813,-1.689563 0.45907,-1.792907 -0.16992,-0.147486 -7.25744,-3.307351 -8.74929,-3.900742 -0.19305,-0.07678 -0.33082,0.073 -0.33094,0.35978 -2.6e-4,0.833646 -1.47592,3.62412 -2.35149,4.446954 -0.75017,0.704993 -0.87037,0.740903 -1.24065,0.37063 -0.23853,-0.238532 -0.67959,-0.358458 -1.05465,-0.28676 l -0.64467,0.123235 v 24.046245 24.04624 h 1.1615 c 0.63883,0 2.27594,-0.23198 3.63802,-0.5155 z m -20.674522,-3.49735 c 0,-1.64003 -0.13076,-1.59936 -0.35454,0.11024 -0.0991,0.75693 -0.0613,1.25677 0.095,1.25677 0.14274,0 0.25952,-0.61515 0.25952,-1.36701 z m 29.555882,-0.019 c -0.0633,-0.32912 -0.11747,-0.12215 -0.1204,0.45993 -0.003,0.58209 0.0488,0.85137 0.11506,0.5984 0.0662,-0.25296 0.0686,-0.72921 0.005,-1.05833 z M 87.820468,94.058225 c -0.16563,-3.22329 -1.14245,-13.124844 -3.25994,-14.684374 -0.89258,0 -17.31457,42.821389 -16.98922,43.146739 0.38025,0.38025 4.94923,2.34077 5.31946,2.28254 5.29572,-10.07791 10.04009,-20.45993 14.9297,-30.744905 z m 43.655882,29.745725 c 1.3526,-0.59303 2.55668,-1.17264 2.67574,-1.28803 0.11906,-0.11539 -0.0877,-0.93239 -0.45938,-1.81556 -0.37172,-0.88317 -3.04736,-7.77472 -5.94586,-15.31457 -7.75877,-20.182805 -10.13708,-26.011939 -10.61296,-26.011939 -0.33306,0 -1.52804,2.959694 -2.08311,5.159374 -0.62806,2.48897 -1.09121,5.96074 -1.09121,8.17983 0,1.50975 0.25193,2.10872 5.73413,13.632995 3.15377,6.62961 6.42482,13.51236 7.269,15.29499 0.84418,1.78263 1.65176,3.24115 1.79463,3.24115 0.14286,0 1.36643,-0.48521 2.71902,-1.07824 z m -32.681152,-45.681908 0.57833,-0.590358 -1.0407,-0.732558 c -1.01479,-0.714324 -2.10034,-2.435224 -2.10034,-3.329635 0,-0.245098 -0.11096,-0.445632 -0.24657,-0.445632 -0.41256,0 -1.3411,1.49686 -1.33834,2.157511 0.004,0.865075 1.12084,3.114505 2.00469,4.036212 l 0.73815,0.769764 0.41322,-0.637473 c 0.22728,-0.350609 0.67348,-0.903133 0.99156,-1.227831 z m 6.620712,0.656505 c 0.72631,-1.012732 1.6645,-3.227586 1.6645,-3.929504 0,-0.150145 -0.31467,-0.685547 -0.69928,-1.189782 l -0.69927,-0.916792 -0.45377,1.340411 c -0.48959,1.446208 -1.30811,2.481322 -2.41939,3.059595 l -0.69984,0.36417 0.89827,0.952446 c 0.49405,0.523845 0.89828,1.063031 0.89828,1.198191 0,0.600333 0.77172,0.151385 1.5105,-0.878735 z m -5.13801,0.330729 c -0.0761,-0.291042 -0.18402,-0.529167 -0.23981,-0.529167 -0.0558,0 -0.101432,0.238125 -0.101432,0.529167 0,0.291042 0.107912,0.529167 0.239812,0.529167 0.1319,0 0.17754,-0.238125 0.10143,-0.529167 z m 2.49895,0.313583 c 0.25294,-0.160661 0.23463,-0.338865 -0.0811,-0.789699 -0.30129,-0.430148 -0.66303,-0.576762 -1.38498,-0.561329 -0.53746,0.01149 -0.79859,0.08701 -0.58031,0.167818 0.82401,0.305063 1.08185,0.654771 0.76461,1.037023 -0.23967,0.288784 -0.1736,0.360953 0.32747,0.357719 0.34524,-0.0022 0.7747,-0.09742 0.95436,-0.211532 z m -3.040022,-0.710458 c 0.0802,-0.419372 0.006,-0.661458 -0.20331,-0.661458 -0.18136,0 -0.52479,0.297656 -0.76316,0.661458 -0.4209,0.642378 -0.41504,0.661458 0.20331,0.661458 0.46906,0 0.67001,-0.174176 0.76316,-0.661458 z m 2.845662,-1.861712 c 0.50932,-0.320756 1.14208,-0.824855 1.40613,-1.120219 0.47993,-0.536859 0.47895,-0.537027 -3.12209,-0.537027 -2.595582,0 -3.574552,0.08503 -3.503332,0.304271 0.0544,0.167349 0.80255,0.732323 1.66264,1.255498 1.691752,1.029055 2.061332,1.039184 3.556652,0.09748 z m 1.90003,-2.305475 c 0.22752,-0.181901 0.46953,-0.568855 0.5378,-0.859896 0.12025,-0.51263 -0.0109,-0.529167 -4.19619,-0.529167 -4.197712,0 -4.315752,0.01502 -4.159022,0.529167 0.34263,1.12396 0.56923,1.190625 4.047122,1.190625 2.28829,0 3.48828,-0.105264 3.77029,-0.330729 z m -0.31253,-1.746484 c 0.7058,-0.110205 -0.64094,-0.184135 -3.30729,-0.181556 -2.473862,0.0024 -4.021672,0.07798 -3.439582,0.167973 1.47736,0.228404 5.321492,0.236143 6.746872,0.01358 z"
       style="fill:#000000;stroke-width:0.264583"
       id="path1" />
  </g>
</svg>
