<?xml version="1.0" encoding="UTF-8" standalone="no"?>
<!-- Created with Inkscape (http://www.inkscape.org/) -->

<svg
   version="1.1"
   id="svg1"
   width="499"
   height="317"
   viewBox="0 0 499 317"
   sodipodi:docname="Capture.svg"
   inkscape:version="1.4.2 (f4327f4, 2025-05-13)"
   xmlns:inkscape="http://www.inkscape.org/namespaces/inkscape"
   xmlns:sodipodi="http://sodipodi.sourceforge.net/DTD/sodipodi-0.dtd"
   xmlns="http://www.w3.org/2000/svg"
   xmlns:svg="http://www.w3.org/2000/svg">
  <defs
     id="defs1" />
  <sodipodi:namedview
     id="namedview1"
     pagecolor="#ffffff"
     bordercolor="#000000"
     borderopacity="0.25"
     inkscape:showpageshadow="2"
     inkscape:pageopacity="0.0"
     inkscape:pagecheckerboard="0"
     inkscape:deskcolor="#d1d1d1"
     inkscape:zoom="1.5867508"
     inkscape:cx="222.15209"
     inkscape:cy="154.71869"
     inkscape:window-width="1366"
     inkscape:window-height="705"
     inkscape:window-x="-8"
     inkscape:window-y="-8"
     inkscape:window-maximized="1"
     inkscape:current-layer="g2" />
  <g
     inkscape:groupmode="layer"
     inkscape:label="Image"
     id="g1">
    <g
       id="g2">
      <g
         id="g3">
        <path
           style="fill:#000000"
           d="m 375.88821,267.64372 c -6.21358,-1.57063 -23.87332,-9.50459 -24.91795,-11.19484 -0.33533,-0.54256 -0.17488,-3.63821 0.35655,-6.87921 1.64618,-10.03946 5.08414,-55.74636 4.77171,-63.43868 l -0.29633,-7.29585 -17.95263,37.9209 c -9.87395,20.85649 -18.73583,38.96152 -19.69307,40.23338 -0.95724,1.27187 -2.25096,3.85937 -2.87492,5.75 -1.3106,3.97113 -2.19777,4.21913 -5.01503,1.40187 -1.11961,-1.11961 -2.58211,-1.92927 -3.25,-1.79926 -0.6679,0.13002 -2.92821,-0.40387 -5.02291,-1.18641 -2.61576,-0.9772 -3.66171,-1.90135 -3.33967,-2.95075 4.0064,-13.05512 44.42694,-116.31282 47.92139,-122.41924 1.98902,-3.47573 3.5884,-4.49165 14.97576,-9.51256 9.36895,-4.13096 13.31159,-6.41327 14.87127,-8.60869 l 2.12235,-2.98744 h 13.28069 13.2807 l 2.06396,3.01216 c 1.56025,2.27702 5.15472,4.35149 14.72812,8.5 10.62917,4.60601 13.01916,6.05025 14.87347,8.98784 3.3093,5.24259 48.53052,120.84638 48.53052,124.06371 0,0.95551 -7.01579,3.43723 -8.75,3.09517 -0.6875,-0.13561 -1.25,0.15094 -1.25,0.63677 0,0.48582 -1.10208,1.38546 -2.44907,1.99919 -2.31438,1.0545 -2.62202,0.80208 -5.59356,-4.58949 -1.72947,-3.13794 -11.42414,-23.03035 -21.54372,-44.20535 l -18.39924,-38.5 -0.0221,6.5 c -0.0324,9.5391 2.84736,47.79945 4.54212,60.3459 0.80578,5.96524 1.20669,11.26394 0.8909,11.77489 -0.90165,1.45891 -13.34677,7.47001 -20.46721,9.88585 -8.51765,2.88988 -27.67363,3.65889 -36.37211,1.46014 z m 33.49519,-2.3497 c 3.53033,-1.01106 9.51857,-3.28891 13.30719,-5.06189 l 6.8884,-3.2236 -0.68021,-18.1658 c -0.37412,-9.99118 -1.27321,-24.91579 -1.99798,-33.16579 -1.1772,-13.39991 -1.50857,-48.68637 -0.49272,-52.46652 0.2994,-1.11411 -1.0477,-1.64788 -5.60589,-2.22124 -8.67921,-1.09174 -41.20377,-1.343 -53.74647,-0.41519 l -10.74647,0.79493 0.74647,4.15401 c 1.10479,6.14801 0.6543,45.54711 -0.65921,57.65401 -0.62655,5.775 -1.42316,18.02077 -1.77025,27.21283 l -0.63108,16.71282 7.4035,3.38722 c 6.62155,3.02947 15.86108,5.888 22.90351,7.0859 4.77679,0.81252 18.69968,-0.45407 25.08121,-2.28169 z m -94.10154,-5.07724 c 2.45209,-4.8065 2.44754,-4.69486 0.21522,-5.27862 -1.2922,-0.33792 -2.37566,0.56959 -3.81315,3.19392 -1.10442,2.01628 -1.82963,4.20121 -1.61156,4.85541 0.79684,2.39052 3.23909,1.09159 5.20949,-2.77071 z m 158.64884,2.48586 c 0.31116,-0.81087 -0.15297,-2.19301 -1.03139,-3.07143 -1.92097,-1.92098 -2.02609,-3.57322 -0.34712,-5.45604 1.06341,-1.19253 0.98877,-1.20411 -0.5,-0.0776 -0.9625,0.72832 -1.75,1.02828 -1.75,0.66659 0,-0.3617 -0.90084,-0.17551 -2.00187,0.41374 -2.00124,1.07103 -2.00123,1.0726 0.0203,5.03518 2.05726,4.03256 4.58712,5.15522 5.61005,2.48952 z m -166.70099,-3.66113 c -1.05821,-1.97728 -0.94973,-2.08696 1.46481,-1.48095 1.98509,0.49822 2.60767,0.27772 2.60767,-0.92359 0,-0.86793 -0.39901,-1.33146 -0.8867,-1.03006 -0.48768,0.3014 -1.44278,-0.12204 -2.12244,-0.94098 -0.98844,-1.19099 -0.97109,-1.48899 0.0867,-1.48899 2.02007,0 -0.1754,-1.75931 -3.09345,-2.47889 -2.25634,-0.55641 -2.68555,-0.16268 -4.16031,3.81644 -1.61086,4.3463 -1.60033,4.45819 0.51589,5.48197 1.18818,0.57482 3.18865,1.07557 4.4455,1.1128 2.0286,0.0601 2.15687,-0.17209 1.14234,-2.06775 z m 174.56406,0.95731 c 1.7684,-0.80574 2.38311,-1.67497 1.94477,-2.75 -0.3525,-0.86454 -1.08891,-2.80938 -1.63646,-4.32188 -0.54755,-1.5125 -1.51402,-2.73406 -2.14772,-2.71457 -1.63348,0.0502 -6.4101,2.8862 -4.93356,2.92913 1.67548,0.0487 0.40203,3.03544 -1.29422,3.03544 -0.87051,0 -1.12641,0.61296 -0.70949,1.69944 0.4079,1.06297 0.80187,1.25022 1.05195,0.5 0.2199,-0.65969 1.27815,-1.19944 2.35166,-1.19944 1.64198,0 1.78192,0.31752 0.88149,2 -1.27781,2.38759 0.38673,2.69217 4.49158,0.82188 z m -128.80226,-8.57188 c -0.25153,-0.9625 -0.45732,-0.175 -0.45732,1.75 0,1.925 0.20579,2.7125 0.45732,1.75 0.25153,-0.9625 0.25153,-2.5375 0,-3.5 z m -14.78164,-37.99571 19.32748,-40.7457 -0.67498,-8.31875 c -1.03895,-12.80458 -6.49792,-31.70634 -8.54044,-29.57144 -1.5455,1.6154 -9.61334,21.48114 -25.53736,62.8816 -8.67349,22.55 -16.63178,43.01165 -17.6851,45.47034 -1.81841,4.24463 -1.82675,4.53495 -0.16506,5.75 0.96252,0.70381 2.22653,1.27446 2.80891,1.2681 0.58238,-0.006 2.9253,-4.61172 5.20649,-10.23414 4.44237,-10.949 6.56087,-13.47616 8.78726,-10.48232 1.13297,1.52351 0.70467,3.2555 -3.05452,12.35204 -2.40474,5.81904 -4.12253,10.98415 -3.8173,11.47802 0.30524,0.49388 1.33396,0.89796 2.28605,0.89796 1.2969,0 6.57882,-10.21987 21.05857,-40.74571 z m 130.55156,39.81165 c 0.31751,-0.51373 -1.23093,-5.47278 -3.44098,-11.0201 -4.45001,-11.16975 -4.74542,-12.82958 -2.44072,-13.71397 2.37162,-0.91008 3.88578,1.24374 8.1594,11.60635 2.14083,5.19103 4.3315,9.58459 4.86817,9.76348 0.53667,0.17889 1.74236,-0.24331 2.67932,-0.93822 1.56477,-1.16054 1.09033,-2.85223 -5.82316,-20.76348 -23.46865,-60.80185 -31.12625,-80.26071 -34.23692,-87 l -3.46179,-7.5 -2.24799,5 c -2.77823,6.17935 -5.14854,16.61007 -6.02193,26.5 l -0.66234,7.5 18.85084,39.5 c 10.36797,21.725 19.20771,40.0625 19.64387,40.75 0.93213,1.46927 3.30917,1.65092 4.13423,0.31594 z m -151.978,-9.56594 c 2.72556,-6.56686 3.06802,-8.14405 1.91165,-8.80412 -1.79338,-1.02369 -3.0104,-0.26655 -3.67857,2.28853 -0.34393,1.31519 -0.0384,2.01559 0.8793,2.01559 1.83794,0 1.79319,1.43409 -0.0936,3 -1.24158,1.03042 -1.50803,0.9223 -1.54661,-0.62756 -0.0256,-1.02984 -1.08495,0.60256 -2.35405,3.62756 -1.26909,3.025 -2.10617,5.86241 -1.86016,6.30537 1.26048,2.26956 3.76291,-0.62753 6.74206,-7.80537 z m 156.92583,7.65036 c 0.5497,-0.88944 -4.97047,-14.95333 -6.51576,-16.60036 -0.55915,-0.59596 -1.32841,-0.51291 -2.06419,0.22287 -0.89716,0.89717 -0.86634,1.8257 0.13111,3.95 0.75558,1.60916 1.49505,2.2488 1.75829,1.5209 0.56957,-1.57499 2.28348,-0.61136 2.28348,1.28386 0,0.83664 -0.60441,1.17767 -1.48697,0.839 -1.17971,-0.4527 -1.04885,0.48361 0.63333,4.53138 1.9566,4.70811 3.97213,6.33731 5.26071,4.25235 z M 321.30219,231.67694 c 0,-2.85981 -1.16494,-3.21112 -3.06326,-0.92379 -1.08412,1.3063 -1.06228,1.73179 0.12756,2.48469 2.29166,1.4501 2.9357,1.10767 2.9357,-1.5609 z m 145,-0.048 c 0,-1.87889 -1.97305,-2.87899 -3.21992,-1.63212 -1.49333,1.49333 -0.17968,4.27066 1.68206,3.55624 0.84582,-0.32457 1.53786,-1.19043 1.53786,-1.92412 z m -73,-82.93673 c 9.625,0.008 21.14336,0.37081 25.59637,0.80532 l 8.09637,0.79002 3.254,-8.62161 c 1.78971,-4.74189 3.09634,-8.73121 2.90363,-8.86517 -0.1927,-0.13396 -5.30037,-2.40068 -11.35037,-5.03716 l -11,-4.7936 -19,-0.005 -19,-0.005 -10.5,4.66053 c -5.775,2.5633 -10.82049,4.98 -11.2122,5.37044 -0.39171,0.39045 0.41013,3.85442 1.78188,7.69771 1.37174,3.84329 2.69437,7.56011 2.93918,8.2596 0.34447,0.98426 2.65466,1.09731 10.21812,0.5 5.37516,-0.42449 17.64802,-0.76492 27.27302,-0.7565 z m 13.7631,-27.94507 c 0.30688,-0.30688 -0.24373,-1.44384 -1.22359,-2.52658 -1.59556,-1.76307 -3.07506,-1.96258 -14.1705,-1.91095 -11.51491,0.0536 -12.49607,0.20967 -13.9075,2.21247 -1.47249,2.08944 -1.38873,2.1751 2.75996,2.82291 4.77094,0.74496 25.66955,0.27423 26.54163,-0.59785 z m -264.7631,118.24589 c -9.84729,-1.21555 -26.21826,-6.74047 -37.32482,-12.59647 l -8.905859,-4.69568 0.554062,-5.01198 c 0.304735,-2.7566 1.25534,-10.86199 2.112456,-18.01199 2.177401,-18.1637 4.664581,-52.95049 5.571321,-79.5 0.11947,-3.49797 -0.0177,-10.5 -0.0177,-10.5 0,0 -17.332781,36.70506 -26.119765,55 -9.072099,18.88856 -26.725022,55.69555 -27.464784,56.54566 -0.739762,0.85011 -2.900477,5.51224 -4.384914,8.25 -1.217242,2.24497 -3.340342,6.70434 -3.707559,6.70434 -1.80271,0 -20.604844,-8.59847 -20.988529,-9.59834 -0.242981,-0.6332 0.709741,-3.98519 2.117162,-7.44887 1.40742,-3.46369 2.558946,-6.80206 2.558946,-7.41861 0,-0.61655 2.893979,-8.06679 4.402017,-12.07759 6.851568,-18.22251 11.919395,-30.53156 21.107326,-54.45656 13.219608,-33.2244 24.904725,-67.137194 40.186653,-99.500002 L 111.04142,36.330386 C 128.14744,28.832903 130.38334,27.5715 133.02087,23.93049 l 2.93623,-4.053344 18.67419,-0.100104 18.67419,-0.100104 3.14486,4.197487 c 2.825,3.770563 5.05629,5.041931 21.93787,12.5 l 18.79301,8.302513 3.19266,6.5 c 1.75597,3.575 5.66901,12.575 8.69565,20 5.71186,14.012423 49.15799,126.083172 51.94737,134.000002 0.87203,2.475 2.92987,8.01559 4.57297,12.31243 1.70243,4.45199 2.60567,8.16264 2.09989,8.62661 -0.97767,0.89683 -19.4943,9.06096 -20.55068,9.06096 -1.30991,0 -13.49566,-24.32938 -37.53126,-74.93283 -13.47134,-28.36194 -24.7194,-51.79217 -24.99569,-52.06717 -1.405,-1.39846 4.1237,77.03546 6.82093,96.76632 1.63153,11.93499 1.82587,15.58087 0.89061,16.70779 -1.7041,2.05332 -20.31274,11.03122 -28.02148,13.51921 -7.61317,2.45715 -23.56633,5.0478 -30,4.87174 -2.475,-0.0677 -7.875,-0.53975 -12,-1.04894 z m 27.61901,-2.34267 c 4.88454,-0.83961 11.13099,-2.24514 13.88099,-3.12341 5.77719,-1.84507 22.70096,-9.48241 22.17587,-10.0075 -0.19451,-0.19452 -5.48866,1.2093 -11.76477,3.1196 -28.92926,8.80535 -50.91377,8.81595 -78.9105,0.038 -6.21131,-1.94746 -11.45519,-3.37894 -11.65306,-3.18107 -0.61567,0.61567 14.77132,7.45401 22.69179,10.08475 13.77011,4.57369 28.70807,5.62585 43.57968,3.06958 z M 48.117663,220.74377 c -1.193517,-0.8731 -20.033097,-8.67917 -20.291395,-8.40761 -0.17828,0.18743 -1.46297,3.15417 -2.854867,6.59277 -2.635775,6.56332 -4.075901,5.58037 2.150033,8.28649 2.574414,1.11897 6.480753,2.88165 8.680753,3.91706 2.2,1.03541 4.556022,1.91899 5.235605,1.96351 1.674854,0.10967 7.444741,-12.08531 7.079871,-12.35222 z m 229.195997,8.68317 c 4.93261,-2.0625 8.97291,-4.25249 8.97845,-4.86665 0.009,-0.97023 -3.86639,-11.23107 -4.63009,-12.25985 -0.2252,-0.30336 -19.14005,7.56313 -20.14031,8.37615 -0.60409,0.491 5.09561,12.50035 5.93273,12.50035 0.48996,0 4.92661,-1.6875 9.85922,-3.75 z M 150.30219,140.28535 V 49.393754 l -2.6176,-0.656974 c -1.77188,-0.444715 -3.20719,-0.123392 -4.4425,0.994544 -1.70792,1.545645 -1.97821,1.498219 -4.21623,-0.739799 -3.24273,-3.242732 -7.85592,-11.273257 -8.70104,-15.146569 -0.43174,-1.978678 -1.22272,-3.058335 -2.10694,-2.875859 -0.77863,0.160688 -8.6976,3.501084 -17.59771,7.423103 l -16.182009,7.130944 1.816645,3.576897 c 3.266252,6.43111 6.914304,19.641524 8.621184,31.219238 2.10708,14.29223 1.53485,48.452701 -1.42985,85.357661 -1.10459,13.75 -2.15135,31.93633 -2.32615,40.41407 l -0.3178,15.41406 3,0.37403 c 1.65,0.20571 6.375,1.44305 10.5,2.74964 14.79623,4.68668 22.07297,6.18241 31.25,6.42344 l 4.75,0.12476 z m 8,0.50099 V 50.39575 l -3.5,-0.408605 -3.5,-0.408605 v 90.7992 90.7992 h 3.5 3.5 z m -5.33334,66.72393 c -1.37656,-1.37656 -0.59385,-3.33333 1.33334,-3.33333 1.33333,0 2,0.66666 2,2 0,1.92719 -1.95677,2.7099 -3.33334,1.33333 z m -0.16666,-25.33333 c -0.83704,-1.35436 0.29242,-3 2.05901,-3 0.79254,0 1.44099,0.9 1.44099,2 0,2.0703 -2.41251,2.75959 -3.5,1 z m -0.17711,-24.60093 c -0.70745,-1.84361 1.71097,-3.76521 3.05153,-2.42465 1.0915,1.0915 0.0897,4.02558 -1.37442,4.02558 -0.58453,0 -1.33922,-0.72042 -1.67711,-1.60093 z m 0.34377,-24.06574 c -1.37656,-1.37656 -0.59385,-3.33333 1.33334,-3.33333 1.33333,0 2,0.66666 2,2 0,1.92719 -1.95677,2.7099 -3.33334,1.33333 z m -0.4785,-26.07185 c 0.50201,-2.60673 3.81184,-2.89745 3.81184,-0.33481 0,1.4311 -0.64223,2.07333 -2.07333,2.07333 -1.4311,0 -1.96961,-0.53852 -1.73851,-1.73852 z m 0.13473,-23.862407 c -0.70745,-1.84361 1.71097,-3.765215 3.05153,-2.424652 1.0915,1.091495 0.0897,4.025577 -1.37442,4.025577 -0.58453,0 -1.33922,-0.720416 -1.67711,-1.600925 z m 0.34377,-24.065742 c -1.37656,-1.376564 -0.59385,-3.333333 1.33334,-3.333333 1.33333,0 2,0.666667 2,2 0,1.92719 -1.95677,2.709897 -3.33334,1.333333 z m 24.47326,169.718339 c 5.14804,-1.07158 12.2532,-2.9088 15.78923,-4.08273 3.53604,-1.17392 8.26104,-2.44803 10.5,-2.83136 l 4.07085,-0.69696 0.10314,-14.47031 c 0.0868,-12.18174 -1.43702,-38.82117 -4.03613,-70.55836 -0.99702,-12.17446 -0.726,-47.534155 0.42856,-55.911952 1.36131,-9.878086 4.22453,-20.707305 7.58755,-28.697485 1.40427,-3.336397 2.18504,-6.38575 1.73505,-6.776339 -0.64221,-0.557428 -27.42967,-12.500225 -33.06817,-14.742962 -0.72962,-0.290206 -1.25033,0.275889 -1.25079,1.359797 -0.001,3.150788 -5.57827,13.697461 -8.88751,16.807386 -2.8353,2.66454 -3.28962,2.800261 -4.68907,1.400807 -0.90154,-0.901539 -2.56856,-1.354802 -3.98611,-1.08382 l -2.43652,0.46577 v 90.883428 90.88342 h 4.38992 c 2.41445,0 8.60195,-0.87675 13.75,-1.94833 z M 99.302187,216.01027 c 0,-6.19852 -0.494218,-6.04484 -1.339992,0.41667 -0.374465,2.86082 -0.231634,4.75 0.359122,4.75 0.539479,0 0.98087,-2.325 0.98087,-5.16667 z m 111.707263,-0.0717 c -0.2392,-1.24392 -0.44398,-0.46166 -0.45508,1.73834 -0.0111,2.2 0.1846,3.21774 0.4349,2.26166 0.25029,-0.95609 0.25937,-2.75609 0.0202,-4 z M 105.50872,102.67691 c -0.62598,-12.182518 -4.3179,-49.605717 -12.321043,-55.500002 -3.373513,0 -65.440894,161.844592 -64.211209,163.074282 1.43716,1.43716 18.705762,8.84698 20.105041,8.62692 20.01532,-38.08975 37.946806,-77.32887 56.427211,-116.2012 z m 164.99861,112.42478 c 5.11217,-2.24138 9.66303,-4.43205 10.11303,-4.86817 0.44999,-0.43612 -0.33132,-3.524 -1.73624,-6.86196 -1.40493,-3.33795 -11.51757,-29.38477 -22.47255,-57.88183 -29.32448,-76.281466 -38.31335,-98.312822 -40.11198,-98.312822 -1.25879,0 -5.77525,11.186259 -7.87314,19.5 -2.3738,9.407123 -4.12426,22.528778 -4.12426,30.9159 0,5.706142 0.95217,7.969962 21.6723,51.526232 11.91976,25.05683 24.28278,51.07037 27.47337,57.80787 3.19059,6.7375 6.24287,12.25 6.78285,12.25 0.53997,0 5.16445,-1.83385 10.27662,-4.07522 z M 146.98801,42.445661 l 2.18582,-2.231277 -3.93334,-2.768723 c -3.83544,-2.699805 -7.9383,-9.203995 -7.9383,-12.584447 0,-0.926352 -0.41936,-1.684276 -0.93191,-1.684276 -1.55931,0 -5.06872,5.657421 -5.05832,8.154371 0.0136,3.269576 4.23626,11.771357 7.57681,15.254973 l 2.78986,2.909344 1.56178,-2.409344 c 0.85898,-1.325139 2.5454,-3.413419 3.7476,-4.640621 z m 25.02315,2.481277 c 2.74511,-3.827647 6.29103,-12.198749 6.29103,-14.851669 0,-0.567476 -1.18931,-2.591042 -2.64292,-4.496814 l -2.64291,-3.465039 -1.71505,5.066121 c -1.85042,5.46598 -4.94405,9.378222 -9.14417,11.563821 l -2.64504,1.376392 3.39504,3.599796 c 1.86728,1.979888 3.39505,4.017755 3.39505,4.528594 0,2.268977 2.91673,0.572166 5.70897,-3.321202 z m -19.41922,1.25 c -0.28766,-1.1 -0.69553,-2 -0.90638,-2 -0.21086,0 -0.38337,0.9 -0.38337,2 0,1.1 0.40787,2 0.90638,2 0.49851,0 0.67102,-0.9 0.38337,-2 z m 9.44484,1.185194 c 0.95599,-0.607223 0.88678,-1.280748 -0.30671,-2.984687 -1.13872,-1.625758 -2.50594,-2.179887 -5.23459,-2.12156 -2.03131,0.04342 -3.01829,0.328844 -2.19329,0.634273 3.11437,1.152993 4.08891,2.474725 2.88988,3.919459 -0.90583,1.091466 -0.65613,1.364232 1.23767,1.352008 1.30485,-0.0084 2.92801,-0.368194 3.60704,-0.799493 z m -11.48984,-2.685194 c 0.303,-1.58503 0.0218,-2.5 -0.76841,-2.5 -0.68548,0 -1.98345,1.125 -2.88439,2.5 -1.59081,2.427884 -1.56864,2.5 0.76842,2.5 1.7728,0 2.53232,-0.658303 2.88438,-2.5 z m 10.75525,-7.036391 c 1.925,-1.212306 4.31652,-3.117562 5.31449,-4.233901 1.81392,-2.029072 1.81022,-2.029708 -11.8,-2.029708 -9.81009,0 -13.51011,0.321354 -13.24094,1.15 0.20546,0.6325 3.03326,2.767835 6.284,4.74519 6.39402,3.889343 7.79085,3.927626 13.44245,0.368419 z m 7.18121,-8.713609 c 0.85991,-0.6875 1.77459,-2.15 2.03262,-3.25 0.45449,-1.937499 -0.0411,-2 -15.85962,-2 -15.86534,0 -16.31148,0.05676 -15.71911,2 1.29496,4.248039 2.15142,4.5 15.29621,4.5 8.64863,0 13.18404,-0.397847 14.2499,-1.25 z m -1.18121,-6.600884 c 2.66758,-0.416521 -2.42247,-0.695941 -12.5,-0.686193 -9.35,0.009 -15.2,0.29473 -13,0.634856 5.58373,0.863261 20.11275,0.892511 25.5,0.05134 z"
           id="path1"
           sodipodi:nodetypes="sssscsssssssssscccssssssssscsssssssscssssscssscssssssssssssssssssssssssssssssssssssssssssssscssssscsssssssssssssscsscsssssssssssssssssssssssssssssscscssscccsssssccsssssssscssacasassssascsscccsscsssssssssssssscssssssccsssssssscssssccsssssscsssscssscccccccccccssssssssssssssssssssssssssssssscsssssscssscccssssssssssscssscsssssssssssscssssscssssscsscssssssssssssssssssssssssssssssssscsss" />
      </g>
    </g>
  </g>
</svg>
